<?xml version="1.0" encoding="utf-8"?>
<!-- Generator: Adobe Illustrator 25.2.1, SVG Export Plug-In . SVG Version: 6.00 Build 0)  -->
<svg version="1.1" id="Camada_1" xmlns="http://www.w3.org/2000/svg" xmlns:xlink="http://www.w3.org/1999/xlink" x="0px" y="0px"
	 viewBox="0 0 1024 1024" style="enable-background:new 0 0 1024 1024;" xml:space="preserve">
<style type="text/css">
	.st0{fill:none;stroke:#000000;stroke-miterlimit:10;}
</style>
<circle cx="242.2" cy="465.6" r="5"/>
<circle cx="342.6" cy="317.4" r="5"/>
<circle cx="599.6" cy="342.5" r="5"/>
<circle cx="670.6" cy="672.5" r="5"/>
<circle cx="264.7" cy="591.7" r="5"/>
<circle cx="159.9" cy="562.6" r="5"/>
<circle cx="584.4" cy="352.1" r="4.8"/>
<circle cx="613.4" cy="553.3" r="4"/>
<circle cx="753" cy="427.8" r="4"/>
<circle cx="275.7" cy="703.3" r="3.7"/>
<circle cx="533.9" cy="354" r="3.7"/>
<circle cx="547.3" cy="365.8" r="3.5"/>
<circle cx="599.6" cy="342.5" r="3.5"/>
<circle cx="416" cy="648.7" r="3.3"/>
<circle cx="281.3" cy="420.2" r="3.2"/>
<circle cx="269.5" cy="721.4" r="3.2"/>
<circle cx="533.9" cy="354" r="3.2"/>
<circle cx="756.3" cy="345.8" r="3.1"/>
<circle cx="540.3" cy="377.2" r="3.1"/>
<circle cx="457.7" cy="317.1" r="3.1"/>
<circle cx="568.8" cy="827.8" r="2.9"/>
<circle cx="786.4" cy="316" r="2.8"/>
<circle cx="373.6" cy="381.2" r="2.8"/>
<circle cx="485.7" cy="850.2" r="2.8"/>
<circle cx="281.9" cy="436" r="2.8"/>
<circle cx="619.9" cy="801.9" r="2.8"/>
<circle cx="734" cy="323.7" r="2.8"/>
<circle cx="609.9" cy="280.7" r="2.8"/>
<circle cx="158.3" cy="500.7" r="2.7"/>
<circle cx="659" cy="188.1" r="2.7"/>
<circle cx="200.2" cy="630" r="2.7"/>
<circle cx="410.5" cy="365.1" r="2.7"/>
<circle cx="412.1" cy="341.8" r="2.7"/>
<circle cx="227.3" cy="446.8" r="2.7"/>
<circle cx="380.2" cy="558.4" r="2.7"/>
<circle cx="626.8" cy="443.5" r="2.6"/>
<circle cx="180" cy="463.9" r="2.6"/>
<circle cx="520" cy="663" r="2.5"/>
<circle cx="402.3" cy="413.9" r="2.5"/>
<circle cx="352.4" cy="406.6" r="2.3"/>
<circle cx="593.2" cy="824.4" r="2.3"/>
<circle cx="746.9" cy="697.2" r="2.3"/>
<circle cx="428.5" cy="681.5" r="2.3"/>
<circle cx="436.6" cy="355.9" r="2.3"/>
<circle cx="744.1" cy="384.2" r="2.3"/>
<circle cx="583.8" cy="382.8" r="2.3"/>
<circle cx="631.9" cy="391.1" r="2.3"/>
<circle cx="739.7" cy="458.7" r="2.2"/>
<circle cx="638.2" cy="413" r="2.2"/>
<circle cx="481.4" cy="828.9" r="2.2"/>
<circle cx="752.3" cy="332.9" r="2.2"/>
<circle cx="522.2" cy="818" r="2.2"/>
<circle cx="810.3" cy="450.5" r="2.1"/>
<circle cx="696.8" cy="704.1" r="2.1"/>
<circle cx="300.2" cy="431.8" r="2.1"/>
<circle cx="431.1" cy="372.9" r="2.1"/>
<circle cx="529.6" cy="403.8" r="2"/>
<circle cx="602.9" cy="403.5" r="2"/>
<circle cx="484.1" cy="686.3" r="2"/>
<circle cx="793.5" cy="494.2" r="2"/>
<circle cx="190.9" cy="412.5" r="2"/>
<circle cx="544.6" cy="534.9" r="2"/>
<circle cx="722" cy="533.8" r="2"/>
<circle cx="749.4" cy="468.4" r="2"/>
<circle cx="651.4" cy="402" r="2"/>
<circle cx="760.8" cy="597.1" r="2"/>
<circle cx="533.8" cy="329.7" r="2"/>
<circle cx="754.3" cy="347.1" r="2"/>
<circle cx="251.8" cy="349.9" r="2"/>
<circle cx="560.2" cy="510.4" r="2"/>
<circle cx="805.2" cy="335" r="2"/>
<circle cx="649.2" cy="671.4" r="2"/>
<circle cx="315.2" cy="397.7" r="2"/>
<circle cx="696.8" cy="704.1" r="1.9"/>
<circle cx="475.8" cy="407.2" r="1.9"/>
<circle cx="590.9" cy="451.7" r="1.9"/>
<path d="M690.3,511.8c1,0,1.9,0.9,1.9,1.9s-0.9,1.9-1.9,1.9s-1.9-0.9-1.9-1.9S689.3,511.8,690.3,511.8z"/>
<circle cx="782.6" cy="537.8" r="1.9"/>
<circle cx="530.5" cy="371.8" r="1.9"/>
<circle cx="485" cy="348" r="1.9"/>
<circle cx="573.2" cy="597.3" r="1.9"/>
<circle cx="752.9" cy="416.8" r="1.9"/>
<circle cx="161.5" cy="475.1" r="1.9"/>
<circle cx="806.9" cy="661.5" r="1.9"/>
<circle cx="498.4" cy="199.5" r="1.9"/>
<circle cx="703.1" cy="307.1" r="1.8"/>
<circle cx="676.7" cy="296.1" r="1.8"/>
<circle cx="826.5" cy="346.1" r="1.8"/>
<circle cx="552.3" cy="408.5" r="1.8"/>
<circle cx="595.6" cy="645.5" r="1.8"/>
<circle cx="324.2" cy="470.9" r="1.8"/>
<circle cx="197.5" cy="395.4" r="1.8"/>
<circle cx="619.9" cy="312.4" r="1.8"/>
<circle cx="590.9" cy="306.7" r="1.8"/>
<circle cx="552.3" cy="408.5" r="1.8"/>
<circle cx="269.5" cy="721.4" r="1.8"/>
<circle cx="251.2" cy="602.8" r="1.8"/>
<circle cx="583" cy="756.6" r="1.8"/>
<circle cx="731.2" cy="444.7" r="1.8"/>
<circle cx="188.1" cy="660.9" r="1.7"/>
<circle cx="749.2" cy="435.7" r="1.7"/>
<circle cx="344.2" cy="336.6" r="1.7"/>
<circle cx="796.7" cy="345.7" r="1.7"/>
<circle cx="394.5" cy="695.4" r="1.7"/>
<circle cx="558.2" cy="538.1" r="1.7"/>
<circle cx="679.2" cy="395.8" r="1.7"/>
<circle cx="211.6" cy="679.8" r="1.7"/>
<circle cx="483.4" cy="781.5" r="1.7"/>
<circle cx="461.1" cy="339.4" r="1.7"/>
<circle cx="600.5" cy="505.9" r="1.6"/>
<circle cx="732.8" cy="369.2" r="1.6"/>
<circle cx="749.6" cy="325.7" r="1.6"/>
<circle cx="272" cy="444" r="1.6"/>
<circle cx="538.3" cy="515" r="1.6"/>
<circle cx="259.4" cy="393.4" r="1.6"/>
<circle cx="673.8" cy="754.9" r="1.6"/>
<circle cx="438.8" cy="769.4" r="1.6"/>
<circle cx="538.4" cy="333" r="1.6"/>
<circle cx="509.3" cy="355.6" r="1.6"/>
<circle cx="654" cy="405.7" r="1.6"/>
<circle cx="667.9" cy="308.2" r="1.6"/>
<circle cx="341.6" cy="613.6" r="1.6"/>
<circle cx="263.4" cy="351.9" r="1.6"/>
<circle cx="462.8" cy="539.1" r="1.6"/>
<circle cx="375.5" cy="738.8" r="1.6"/>
<circle cx="773.8" cy="313.7" r="1.6"/>
<circle cx="371.8" cy="797.4" r="1.6"/>
<circle cx="312.4" cy="354.9" r="1.6"/>
<circle cx="439.6" cy="367" r="1.6"/>
<circle cx="590" cy="327.4" r="1.6"/>
<circle cx="190.4" cy="368.9" r="1.6"/>
<circle cx="671.7" cy="403.2" r="1.6"/>
<circle cx="405.6" cy="811.8" r="1.6"/>
<circle cx="835.8" cy="586.8" r="1.6"/>
<circle cx="763.2" cy="334.3" r="1.6"/>
<circle cx="387.1" cy="302.7" r="1.5"/>
<circle cx="785.2" cy="531.3" r="1.5"/>
<circle cx="638.8" cy="482.3" r="1.5"/>
<circle cx="339.8" cy="380" r="1.5"/>
<circle cx="335.7" cy="249.2" r="1.5"/>
<circle cx="792.7" cy="401" r="1.5"/>
<circle cx="438.8" cy="225.7" r="1.5"/>
<circle cx="479.4" cy="323.7" r="1.5"/>
<circle cx="689.2" cy="470.8" r="1.5"/>
<circle cx="172.9" cy="404.1" r="1.5"/>
<circle cx="538.2" cy="831.4" r="1.4"/>
<circle cx="484.1" cy="666.1" r="1.4"/>
<circle cx="723.5" cy="338.9" r="1.4"/>
<circle cx="673" cy="294" r="1.4"/>
<circle cx="310.3" cy="461.3" r="1.4"/>
<circle cx="375.6" cy="232.1" r="1.4"/>
<circle cx="207.7" cy="613.3" r="1.4"/>
<circle cx="854.2" cy="609" r="1.4"/>
<circle cx="662.7" cy="387.5" r="1.4"/>
<circle cx="469.4" cy="357.5" r="1.4"/>
<circle cx="477.2" cy="357.7" r="1.4"/>
<circle cx="606.9" cy="426.6" r="1.4"/>
<circle cx="627.1" cy="594.9" r="1.4"/>
<circle cx="701.9" cy="395.2" r="1.4"/>
<circle cx="433" cy="355.7" r="1.4"/>
<circle cx="637.8" cy="364.2" r="1.4"/>
<circle cx="606.2" cy="191.8" r="1.4"/>
<circle cx="588.2" cy="615.6" r="1.4"/>
<circle cx="332.7" cy="613.9" r="1.4"/>
<circle cx="381.9" cy="356.4" r="1.4"/>
<circle cx="605.9" cy="423.5" r="1.4"/>
<circle cx="425.8" cy="695.8" r="1.4"/>
<circle cx="434.9" cy="775.2" r="1.4"/>
<circle cx="732.8" cy="280.6" r="1.4"/>
<circle cx="721.2" cy="730.5" r="1.4"/>
<circle cx="280.9" cy="426.1" r="1.4"/>
<circle cx="698.7" cy="763.8" r="1.4"/>
<circle cx="489.6" cy="736.3" r="1.4"/>
<circle cx="450" cy="380.9" r="1.3"/>
<circle cx="388" cy="637.3" r="1.3"/>
<circle cx="620.4" cy="402.5" r="1.3"/>
<circle cx="415.1" cy="668.1" r="1.3"/>
<circle cx="301.2" cy="619.8" r="1.3"/>
<circle cx="831.6" cy="433.4" r="1.3"/>
<circle cx="733.1" cy="369" r="1.3"/>
<circle cx="285.1" cy="401.2" r="1.3"/>
<circle cx="505" cy="479" r="1.3"/>
<circle cx="617.7" cy="205.9" r="1.3"/>
<circle cx="245.6" cy="669.5" r="1.3"/>
<circle cx="192.3" cy="437.6" r="1.3"/>
<circle cx="759.2" cy="549" r="1.3"/>
<circle cx="404.1" cy="370.4" r="1.3"/>
<circle cx="241.4" cy="641.4" r="1.3"/>
<circle cx="681.9" cy="420" r="1.3"/>
<circle cx="271.8" cy="685.4" r="1.3"/>
<circle cx="681.3" cy="719.8" r="1.3"/>
<circle cx="490.9" cy="546.4" r="1.3"/>
<circle cx="654.5" cy="281.6" r="1.3"/>
<circle cx="374.2" cy="793.5" r="1.3"/>
<circle cx="533" cy="364.9" r="1.3"/>
<circle cx="637.3" cy="267.8" r="1.3"/>
<circle cx="232.4" cy="729.4" r="1.3"/>
<circle cx="521.6" cy="612.2" r="1.3"/>
<ellipse class="st0" cx="512.1" cy="512.1" rx="356.6" ry="356.6"/>
<ellipse class="st0" cx="512.1" cy="512.1" rx="316.9" ry="317"/>
<ellipse class="st0" cx="512.1" cy="512.1" rx="277.3" ry="277.4"/>
<ellipse class="st0" cx="512.1" cy="512.1" rx="237.7" ry="237.7"/>
<ellipse class="st0" cx="512.1" cy="512.1" rx="198.1" ry="198.1"/>
<ellipse class="st0" cx="512.1" cy="512.1" rx="158.5" ry="158.5"/>
<ellipse class="st0" cx="512.1" cy="512.1" rx="118.9" ry="118.9"/>
<ellipse class="st0" cx="512.1" cy="512.1" rx="79.2" ry="79.2"/>
<ellipse class="st0" cx="512.1" cy="512.1" rx="39.6" ry="39.6"/>
<line class="st0" x1="512.1" y1="521" x2="512.1" y2="859.8"/>
<line class="st0" x1="514.4" y1="520.7" x2="602" y2="847.9"/>
<line class="st0" x1="516.5" y1="519.8" x2="685.9" y2="813.2"/>
<line class="st0" x1="518.4" y1="518.4" x2="757.9" y2="757.9"/>
<line class="st0" x1="519.8" y1="516.6" x2="813.1" y2="685.9"/>
<line class="st0" x1="520.7" y1="514.4" x2="847.8" y2="602.1"/>
<line class="st0" x1="521" y1="512.1" x2="859.7" y2="512.1"/>
<line class="st0" x1="520.7" y1="509.8" x2="847.8" y2="422.1"/>
<line class="st0" x1="519.8" y1="507.6" x2="813.1" y2="338.3"/>
<line class="st0" x1="518.4" y1="505.8" x2="757.9" y2="266.2"/>
<line class="st0" x1="516.5" y1="504.4" x2="685.9" y2="211"/>
<line class="st0" x1="514.4" y1="503.5" x2="602" y2="176.3"/>
<line class="st0" x1="512.1" y1="503.2" x2="512.1" y2="164.4"/>
<line class="st0" x1="509.7" y1="503.5" x2="422.1" y2="176.3"/>
<line class="st0" x1="507.6" y1="504.4" x2="338.2" y2="211"/>
<line class="st0" x1="505.7" y1="505.8" x2="266.2" y2="266.2"/>
<line class="st0" x1="504.3" y1="507.6" x2="211" y2="338.3"/>
<line class="st0" x1="503.4" y1="509.8" x2="176.3" y2="422.1"/>
<line class="st0" x1="503.1" y1="512.1" x2="164.4" y2="512.1"/>
<line class="st0" x1="503.4" y1="514.4" x2="176.3" y2="602.1"/>
<line class="st0" x1="504.3" y1="516.6" x2="211" y2="685.9"/>
<line class="st0" x1="505.7" y1="518.4" x2="266.2" y2="757.9"/>
<line class="st0" x1="507.6" y1="519.8" x2="338.2" y2="813.2"/>
<line class="st0" x1="509.7" y1="520.7" x2="422.1" y2="847.9"/>
<path d="M517.8,138.1l-1.8,0.2c-0.1-0.7-0.3-1.3-0.6-1.8c-0.3-0.5-0.8-0.8-1.4-1.1c-0.6-0.3-1.4-0.4-2.2-0.4c-0.7,0-1.4,0.1-1.9,0.3
	c-0.5,0.2-1,0.5-1.2,0.9c-0.2,0.4-0.4,0.8-0.4,1.2c0,0.4,0.1,0.8,0.4,1.2c0.3,0.4,0.7,0.6,1.3,0.8c0.4,0.1,1.2,0.4,2.5,0.7
	c1.3,0.3,2.2,0.6,2.8,0.9c0.7,0.4,1.2,0.8,1.5,1.3s0.5,1.1,0.5,1.8s-0.2,1.4-0.6,2c-0.4,0.6-1,1.1-1.8,1.4c-0.8,0.3-1.7,0.5-2.6,0.5
	c-1.1,0-2-0.2-2.8-0.5s-1.4-0.8-1.9-1.5s-0.7-1.4-0.7-2.3l1.8-0.1c0.1,0.9,0.4,1.6,1,2.1c0.6,0.5,1.4,0.7,2.5,0.7
	c1.1,0,2-0.2,2.5-0.6s0.8-0.9,0.8-1.5c0-0.5-0.2-0.9-0.6-1.3c-0.4-0.3-1.3-0.7-2.9-1c-1.5-0.3-2.6-0.7-3.2-0.9
	c-0.8-0.4-1.4-0.9-1.8-1.5c-0.4-0.6-0.6-1.3-0.6-2c0-0.8,0.2-1.5,0.7-2.2s1.1-1.2,1.9-1.6c0.8-0.4,1.7-0.6,2.8-0.6
	c1.3,0,2.4,0.2,3.3,0.6c0.9,0.4,1.6,0.9,2.1,1.7C517.7,136.3,517.7,137.1,517.8,138.1z"/>
<path d="M890.5,517.2h-14.3v-1.9h12.6v-7.1h1.7V517.2z"/>
<path d="M140.5,503.5c2.4,0,4.2,0.6,5.6,1.9c1.4,1.3,2,2.9,2,4.9c0,1.3-0.3,2.5-0.9,3.6c-0.6,1.1-1.5,1.9-2.6,2.4
	c-1.1,0.5-2.4,0.8-3.8,0.8c-1.5,0-2.8-0.3-3.9-0.9c-1.1-0.6-2-1.4-2.6-2.5c-0.6-1.1-0.9-2.2-0.9-3.5c0-1.3,0.3-2.6,1-3.6
	c0.7-1,1.5-1.9,2.7-2.4C138.3,503.7,139.2,503.5,140.5,503.5z M140.4,505.5c-1.7,0-3.1,0.5-4.1,1.4c-1,0.9-1.5,2.1-1.5,3.5
	c0,1.4,0.5,2.6,1.5,3.5c1,0.9,2.4,1.4,4.3,1.4c1.2,0,2.2-0.2,3.1-0.6c0.9-0.4,1.5-1,2-1.7c0.5-0.8,0.7-1.6,0.7-2.6
	c0-1.3-0.5-2.5-1.4-3.5S142.6,505.5,140.4,505.5z"/>
<path d="M506.3,890.5v-14.3h1.9l7.5,11.2v-11.2h1.8v14.3h-1.9l-7.5-11.2v11.2H506.3z"/>
</svg>
