<?xml version="1.0" encoding="utf-8"?>
<!-- Generator: Adobe Illustrator 24.3.0, SVG Export Plug-In . SVG Version: 6.00 Build 0)  -->
<svg version="1.1" id="Camada_1" xmlns="http://www.w3.org/2000/svg" xmlns:xlink="http://www.w3.org/1999/xlink" x="0px" y="0px"
	 viewBox="0 0 500 500" style="enable-background:new 0 0 500 500;" xml:space="preserve">
<style type="text/css">
	.st0{fill:#606060;}
</style>
<g>
	<path class="st0" d="M157.12,202.3v-72.31h2.3v72.31h36.17l-11.3-132.81h-52.04l-11.3,132.81H157.12z M157.12,101.78h2.3v16.64
		h-2.3V101.78z"/>
	<polygon class="st0" points="118.63,202.3 129.93,69.49 93.76,69.49 93.76,170.02 91.46,170.02 91.46,69.49 55.29,69.49 
		66.59,202.3 	"/>
	<rect x="251.17" y="69.49" class="st0" width="40.4" height="132.81"/>
	
		<ellipse transform="matrix(6.477637e-03 -1 1 6.477637e-03 225.4534 315.2498)" class="st0" cx="271.38" cy="44.17" rx="23.08" ry="23.08"/>
	<path class="st0" d="M248.63,202.3v-34.65h-11.92c-0.64,0-1.15-0.52-1.15-1.15c0-0.64,0.52-1.15,1.15-1.15h11.92V69.49
		c-36.03,0-56.76,29.73-56.76,66.4l0,0C191.87,172.57,212.87,202.3,248.63,202.3z"/>
	<path class="st0" d="M396.12,129.99h2.3v18.1l31.26-3.5l-6.39-75.09h-52.04l-7.01,82.43l31.88-3.57L396.12,129.99L396.12,129.99z
		 M396.12,101.78h2.3v16.64h-2.3V101.78z"/>
	<polygon class="st0" points="361.95,152.18 361.95,69.49 339.01,69.49 345.81,153.99 	"/>
	<polygon class="st0" points="294.05,202.3 317,202.3 308.95,102.37 311.25,102.37 319.3,202.3 328.7,202.3 328.7,158.18 
		328.7,155.91 330.95,155.65 343.53,154.24 336.7,69.49 294.05,69.49 	"/>
	<path class="st0" d="M248.61,204.88H66.82v83.18h55.26v35.55c0,2.06-0.53,3.3-1.99,3.3s-1.99-1.24-1.99-3.3v-32.02H51.77v60.09
		c0,54.36,44.07,98.42,98.42,98.42s98.42-44.07,98.42-98.42V204.88z"/>
	<path class="st0" d="M456.7,443l-22.14-238.12H265.68L243.54,443h104.59V313.35h3.97V443H456.7z M348.13,292.59v-29.83h3.97v29.83
		H348.13z"/>
	<polygon class="st0" points="331.24,202.3 448.46,202.3 448.46,145.03 331.24,158.18 	"/>
</g>
</svg>
